<?xml version="1.0" standalone="no"?>
<!DOCTYPE svg PUBLIC "-//W3C//DTD SVG 20010904//EN"
 "http://www.w3.org/TR/2001/REC-SVG-20010904/DTD/svg10.dtd">
<svg version="1.0" xmlns="http://www.w3.org/2000/svg"
 width="500.000000pt" height="500.000000pt" viewBox="0 0 500.000000 500.000000"
 preserveAspectRatio="xMidYMid meet">

<g transform="translate(0.000000,500.000000) scale(0.100000,-0.100000)"
fill="#000000" stroke="none">
<path d="M2564 3819 c-136 -23 -255 -86 -380 -203 -87 -81 -127 -137 -139
-194 l-7 -34 69 35 c37 19 95 44 128 55 69 23 223 57 229 51 2 -2 6 -19 8 -38
l3 -35 -80 -13 c-126 -20 -325 -102 -325 -133 0 -6 63 -10 163 -10 89 0 186
-3 215 -7 51 -6 53 -7 47 -32 -4 -14 -7 -26 -8 -27 -1 -1 -87 3 -192 8 -131 6
-209 6 -255 -2 -36 -6 -96 -16 -135 -21 -38 -6 -107 -19 -152 -30 -45 -10
-114 -23 -153 -29 -162 -23 -260 -118 -260 -252 0 -139 71 -257 189 -318 39
-19 57 -20 514 -20 l475 0 6 -22 c3 -13 6 -29 6 -35 0 -10 -138 -13 -655 -13
l-655 0 0 -35 0 -35 763 0 762 0 94 25 c161 42 275 113 377 232 65 77 125 197
145 293 20 95 18 291 -5 360 -28 83 -82 181 -133 241 -58 68 -170 154 -248
190 -115 52 -275 71 -411 48z m524 -308 c35 -19 77 -51 93 -70 106 -129 87
-350 -40 -462 -69 -61 -131 -79 -270 -79 l-119 0 -4 -199 c-1 -110 -5 -201 -8
-203 -3 -2 -40 -2 -83 0 -75 3 -78 4 -70 25 4 12 7 207 5 432 -2 226 0 452 3
503 l7 94 211 -4 212 -3 63 -34z m-904 -353 c-28 -90 -124 -158 -223 -158 -58
0 -92 13 -110 42 -10 17 -10 22 6 34 67 53 197 96 311 103 20 1 22 -2 16 -21z
m-463 -140 c22 -12 39 -25 39 -30 0 -4 -74 -8 -165 -8 -91 0 -165 4 -165 8 0
5 9 18 20 30 19 20 31 22 127 22 90 0 111 -3 144 -22z m695 -27 c22 -10 57
-38 77 -61 34 -40 37 -49 37 -102 0 -134 -87 -228 -213 -228 -102 0 -197 105
-197 217 0 16 12 54 28 84 22 44 36 58 81 81 64 33 127 36 187 9z m-601 -101
l0 -25 -199 -3 c-208 -3 -215 -1 -216 41 0 16 15 17 208 15 l207 -3 0 -25z
m197 -7 c22 -20 23 -42 2 -71 -22 -32 -73 -27 -93 9 -13 24 -13 29 2 53 20 30
61 35 89 9z m-260 -113 c-32 -30 -34 -30 -145 -30 -113 1 -126 4 -156 43 -13
16 -4 17 160 17 l174 -1 -33 -29z"/>
<path d="M2778 3383 l-28 -4 -1 -150 c-1 -82 -2 -154 -3 -161 -1 -17 210 -11
245 7 63 33 108 121 95 189 -9 50 -62 100 -119 115 -44 11 -132 13 -189 4z"/>
<path d="M2272 2922 c-42 -23 -72 -68 -72 -111 0 -78 77 -150 144 -135 70 15
106 62 106 139 0 100 -89 154 -178 107z m92 -78 c22 -21 20 -57 -3 -78 -26
-24 -62 -17 -80 15 -13 24 -13 29 2 53 20 30 57 35 81 10z"/>
<path d="M3125 2491 c-16 -4 -48 -20 -69 -34 l-39 -27 422 0 421 0 0 35 0 35
-352 -1 c-194 -1 -366 -4 -383 -8z"/>
<path d="M1202 2318 l3 -33 1323 -5 c1234 -5 1325 -4 1333 12 5 9 9 26 9 37
l0 21 -1336 0 -1335 0 3 -32z"/>
<path d="M1125 2163 c-71 -56 -75 -73 -75 -295 1 -206 7 -241 52 -301 14 -17
44 -42 68 -54 41 -23 48 -23 385 -23 l343 0 30 -47 c16 -27 37 -69 47 -95 22
-59 86 -120 163 -156 l57 -27 335 0 c321 0 337 1 380 21 70 33 123 86 160 159
22 43 50 80 82 107 l49 41 332 -7 332 -7 57 41 c46 32 64 54 90 107 l33 68 0
175 c0 203 -9 231 -87 287 l-45 33 -1372 3 -1372 4 -44 -34z m2169 -248 l71
-70 3 120 3 120 50 2 50 1 -1 -219 c-1 -120 -4 -219 -7 -219 -9 0 -108 86
-205 179 l-88 83 0 -121 0 -121 -45 0 -45 0 0 225 0 225 72 -67 c39 -38 103
-99 142 -138z m-1369 -222 c6 -22 3 -23 -42 -23 -47 0 -50 2 -62 35 l-12 35
-88 0 -87 0 -17 -35 c-16 -33 -20 -35 -63 -35 -45 0 -46 0 -39 28 8 32 111
247 135 282 10 14 30 49 45 77 l27 53 98 -198 c55 -108 102 -207 105 -219z
m-492 366 c73 -47 96 -145 49 -208 -38 -51 -69 -65 -148 -69 l-74 -4 0 -54 0
-54 -45 0 -45 0 0 204 0 205 48 4 c101 10 176 1 215 -24z m824 8 c41 -22 71
-61 79 -103 9 -48 -20 -119 -57 -141 -16 -10 -29 -21 -29 -25 0 -4 20 -32 45
-62 25 -31 45 -58 45 -61 0 -3 -24 -5 -52 -5 l-53 0 -35 55 c-32 51 -38 55
-72 55 l-38 0 0 -55 0 -55 -45 0 -45 0 0 203 c0 112 3 207 8 211 13 15 215 1
249 -17z m271 -71 l3 -88 53 58 c29 33 64 72 77 87 20 24 33 29 82 32 l57 3
-26 -31 c-27 -33 -80 -93 -122 -139 l-25 -27 46 -56 c26 -30 68 -80 93 -110
l46 -55 -59 0 -60 0 -63 80 c-35 44 -66 80 -70 80 -18 0 -29 -31 -32 -90 l-3
-65 -47 -3 -48 -3 0 204 c0 112 3 207 7 211 4 4 25 6 48 4 l40 -3 3 -89z m442
-116 l0 -210 -45 0 -45 0 0 204 0 205 43 4 c23 2 43 4 45 5 1 1 2 -92 2 -208z
m905 190 c52 -24 61 -35 42 -55 -9 -8 -17 -20 -19 -27 -4 -10 -10 -10 -32 0
-42 19 -126 15 -163 -8 -34 -20 -63 -66 -63 -98 0 -33 28 -89 56 -111 48 -38
154 -24 154 19 0 16 -7 20 -35 20 -35 0 -35 0 -35 45 l0 45 80 0 80 0 0 -93 0
-94 -52 -24 c-77 -36 -179 -34 -236 4 -63 41 -93 94 -99 171 -9 105 37 177
136 212 54 20 135 17 186 -6z m-1293 -597 c10 -13 9 -18 -7 -29 -13 -9 -22
-11 -29 -4 -15 15 -37 12 -58 -7 -41 -37 -5 -101 51 -90 40 8 63 -17 35 -38
-50 -39 -100 -27 -141 34 -28 42 -29 66 -3 109 36 59 113 72 152 25z m-282
-57 c0 -77 -2 -85 -26 -110 -32 -31 -64 -33 -89 -6 -21 24 -13 55 13 45 9 -3
22 -7 27 -8 6 -1 14 35 19 81 8 77 10 82 32 82 23 0 24 -2 24 -84z m524 32
c57 -127 66 -147 66 -152 0 -13 -58 -5 -64 9 -3 10 -19 15 -46 15 -29 0 -40
-4 -40 -15 0 -9 -9 -15 -25 -15 -14 0 -25 6 -25 13 0 6 16 54 36 105 44 113
62 120 98 40z"/>
<path d="M1692 1882 c-12 -27 -22 -51 -22 -55 0 -4 23 -7 50 -7 28 0 50 3 50
7 0 12 -45 103 -51 103 -3 0 -15 -22 -27 -48z"/>
<path d="M1260 1930 l0 -70 54 0 c56 0 93 19 97 50 7 61 -25 90 -98 90 l-53 0
0 -70z"/>
<path d="M2090 1929 l0 -71 61 4 c72 5 105 32 94 77 -10 42 -41 61 -101 61
l-54 0 0 -71z"/>
<path d="M2772 1395 c-11 -23 -10 -25 14 -25 22 0 24 2 13 23 -6 12 -13 23
-14 25 -1 1 -7 -9 -13 -23z"/>
</g>
</svg>
